<?xml version="1.0" standalone="no"?>
<!DOCTYPE svg PUBLIC "-//W3C//DTD SVG 20010904//EN"
 "http://www.w3.org/TR/2001/REC-SVG-20010904/DTD/svg10.dtd">
<svg version="1.0" xmlns="http://www.w3.org/2000/svg"
 width="500.000000pt" height="500.000000pt" viewBox="0 0 500.000000 500.000000"
 preserveAspectRatio="xMidYMid meet">

<g transform="translate(0.000000,500.000000) scale(0.100000,-0.100000)"
fill="#fff" stroke="none">
<path d="M2006 4000 c-42 -13 -90 -49 -117 -88 -20 -30 -24 -47 -24 -116 0
-93 20 -146 84 -217 l38 -43 -64 -75 c-114 -137 -179 -305 -185 -479 l-3 -87
29 -3 c16 -2 44 -1 63 3 l33 6 0 69 c0 38 5 93 11 122 10 47 13 51 23 33 20
-36 87 -93 157 -135 66 -39 70 -40 113 -29 42 10 45 13 48 48 3 34 6 37 47 47
54 13 77 39 86 101 10 69 29 108 63 133 17 13 36 36 42 51 11 25 9 34 -10 66
-16 27 -22 52 -21 87 1 41 -3 54 -25 77 l-27 28 29 8 c44 12 233 8 282 -6 38
-11 42 -15 42 -44 0 -52 39 -108 97 -141 28 -16 55 -38 60 -48 7 -17 19 -8 96
69 l88 88 -48 43 c-56 50 -200 123 -293 148 -96 26 -311 24 -403 -3 -60 -18
-67 -19 -61 -4 3 9 9 40 12 69 13 147 -123 263 -262 222z m130 -49 c64 -29 89
-72 89 -153 0 -52 -5 -73 -21 -95 -36 -49 -82 -73 -137 -73 -150 0 -227 166
-130 281 50 59 124 74 199 40z"/>
<path d="M2040 3881 c-9 -23 -21 -32 -46 -37 -45 -8 -48 -16 -19 -44 21 -20
24 -29 18 -63 l-6 -40 29 7 c36 10 61 10 97 1 27 -7 28 -7 21 31 -5 32 -2 43
15 58 30 27 26 43 -14 50 -23 5 -38 15 -47 33 -18 37 -33 39 -48 4z"/>
<path d="M3050 3663 c-11 -8 -20 -20 -20 -27 0 -7 47 -50 105 -96 100 -79 105
-85 88 -100 -102 -93 -183 -160 -192 -160 -7 0 -34 9 -61 21 -45 19 -50 20
-79 4 -18 -9 -29 -20 -26 -25 3 -4 34 -25 70 -45 l65 -36 0 -74 c0 -82 9 -91
48 -55 17 16 22 32 22 74 l0 53 121 57 c66 32 123 56 125 53 2 -2 18 -66 34
-142 31 -139 41 -165 66 -165 26 0 41 46 84 250 42 205 42 206 76 228 62 40
98 131 58 146 -32 12 -82 5 -127 -18 l-47 -23 -195 47 c-172 42 -197 45 -215
33z m548 -65 c16 -16 15 -50 -2 -74 -14 -18 -15 -18 -21 8 -4 14 -16 34 -26
44 -15 13 -17 19 -7 26 19 11 42 10 56 -4z"/>
<path d="M2705 3175 c-219 -154 -502 -260 -810 -306 -221 -32 -284 -23 -272
39 l5 26 -19 -25 c-23 -29 -24 -87 -3 -117 34 -49 98 -69 262 -82 139 -12 278
-2 432 32 137 29 210 58 443 171 l207 101 0 81 0 82 -68 32 c-38 17 -73 31
-78 30 -5 -1 -49 -29 -99 -64z"/>
<path d="M3215 2999 c-90 -56 -293 -157 -372 -185 -38 -13 -53 -23 -53 -36 0
-30 48 -68 86 -68 54 0 68 -32 73 -166 l3 -112 -43 -32 c-111 -81 -238 -120
-386 -120 -77 0 -93 3 -93 15 0 25 29 73 50 85 27 14 25 46 -5 82 -37 44 -32
76 23 149 50 66 76 108 70 114 -2 2 -35 -3 -73 -11 -90 -19 -285 -44 -347 -44
l-48 0 0 -35 c0 -73 41 -123 145 -176 25 -12 30 -21 30 -50 0 -18 8 -49 18
-67 l18 -33 -38 16 c-122 51 -260 171 -323 281 l-35 62 -64 6 c-35 4 -65 5
-67 3 -3 -2 17 -46 42 -98 40 -79 63 -109 143 -190 86 -85 108 -102 201 -147
134 -66 204 -82 354 -82 148 0 218 16 352 80 247 119 423 381 435 650 4 92 0
160 -8 159 -5 0 -44 -23 -88 -50z"/>
<path d="M1995 2030 c-22 -3 -46 -9 -52 -13 -15 -10 -18 -243 -4 -266 11 -18
86 -31 136 -24 112 16 165 121 116 229 -27 60 -102 89 -196 74z m99 -81 c22
-17 26 -28 26 -70 0 -58 -24 -89 -70 -89 l-30 0 0 90 c0 88 1 90 24 90 13 0
35 -9 50 -21z"/>
<path d="M2347 2026 c-48 -18 -62 -29 -81 -70 -21 -45 -20 -113 3 -156 52 -97
210 -101 267 -6 26 44 25 136 -2 172 -47 63 -117 86 -187 60z m103 -76 c15
-15 20 -33 20 -70 0 -37 -5 -55 -20 -70 -58 -58 -139 18 -110 105 18 56 72 73
110 35z"/>
<path d="M2793 2029 c-17 -5 -43 -23 -57 -40 -112 -133 20 -320 178 -251 60
27 86 69 86 142 0 91 -46 143 -136 154 -22 3 -53 1 -71 -5z m103 -80 c13 -15
19 -36 19 -69 0 -56 -24 -90 -64 -90 -46 0 -71 34 -71 93 0 73 73 114 116 66z"/>
<path d="M4280 2033 c-75 -10 -70 1 -70 -148 0 -129 1 -135 23 -146 32 -18
137 -15 175 5 95 49 98 222 5 269 -31 16 -94 25 -133 20z m90 -81 c15 -12 24
-33 27 -64 5 -40 2 -50 -20 -72 -17 -17 -37 -26 -57 -26 l-30 0 0 90 0 90 29
0 c16 0 39 -8 51 -18z"/>
<path d="M4628 2028 c-108 -29 -139 -191 -52 -267 68 -60 188 -44 234 31 25
42 26 120 2 168 -30 59 -109 89 -184 68z m98 -79 c13 -15 19 -36 19 -69 0 -84
-68 -122 -114 -64 -63 80 28 206 95 133z"/>
<path d="M308 2023 c-10 -2 -18 -8 -18 -13 0 -18 79 -232 94 -255 13 -20 25
-25 56 -25 50 0 65 22 111 163 36 107 33 129 -13 135 -34 4 -42 -9 -68 -115
-12 -51 -26 -93 -30 -93 -4 0 -19 42 -35 93 -35 120 -40 125 -97 110z"/>
<path d="M632 1883 l3 -148 38 -3 37 -3 0 135 c0 74 -3 141 -6 150 -4 10 -18
16 -40 16 l-35 0 3 -147z"/>
<path d="M848 2018 c-20 -16 -91 -229 -86 -260 2 -18 10 -24 39 -26 33 -3 37
-1 42 27 6 29 9 31 52 31 42 0 47 -2 57 -31 9 -27 14 -30 47 -27 32 3 36 6 33
28 -5 47 -65 242 -79 256 -18 17 -84 18 -105 2z m69 -113 l10 -45 -28 0 c-16
0 -29 3 -29 6 0 17 24 84 30 84 4 0 11 -20 17 -45z"/>
<path d="M1140 1923 c0 -115 -6 -133 -46 -133 -41 0 -39 -45 3 -61 33 -12 99
6 113 31 6 12 9 70 8 142 l-3 123 -37 3 -38 3 0 -108z"/>
<path d="M1362 2022 c-16 -11 -94 -240 -90 -267 2 -15 12 -21 40 -23 33 -3 37
-1 43 27 6 29 9 31 54 31 43 0 48 -3 58 -30 10 -26 16 -30 47 -30 23 0 36 5
36 13 0 34 -73 264 -88 275 -18 13 -80 16 -100 4z m62 -99 c4 -16 9 -36 12
-45 4 -14 -1 -18 -25 -18 -35 0 -35 -1 -19 51 13 46 23 49 32 12z"/>
<path d="M1612 2022 c-9 -7 -12 -43 -10 -148 l3 -139 38 -3 37 -3 1 93 0 93
38 -80 c21 -44 45 -86 54 -93 9 -7 32 -12 54 -10 l38 3 3 128 c3 144 -4 167
-48 167 l-29 0 -3 -92 -3 -93 -39 83 c-22 46 -48 88 -57 93 -22 11 -60 12 -77
1z"/>
<path d="M3172 2017 c-6 -7 -12 -72 -14 -147 l-3 -135 38 -3 37 -3 0 97 c0
105 7 111 34 27 18 -54 33 -67 71 -57 18 4 27 19 41 67 l18 62 6 -85 c3 -47 9
-91 13 -97 5 -7 24 -13 44 -13 l35 0 -6 53 c-3 28 -8 89 -12 135 -7 91 -19
112 -62 112 -40 0 -48 -9 -68 -75 -10 -33 -21 -64 -24 -68 -4 -4 -15 20 -25
53 -10 34 -28 68 -39 76 -25 17 -70 18 -84 1z"/>
<path d="M3549 2026 c-2 -3 -3 -55 -2 -116 3 -153 25 -183 135 -182 95 0 128
49 128 190 0 99 -9 116 -57 110 l-28 -3 -1 -103 c-2 -109 -10 -132 -48 -132
-39 0 -46 19 -46 120 0 61 -4 100 -12 108 -11 11 -60 17 -69 8z"/>
<path d="M3882 2018 c-15 -15 -17 -241 -2 -269 7 -12 21 -19 40 -19 l29 0 3
93 3 92 45 -90 45 -90 45 0 45 0 0 145 0 145 -37 3 -38 3 0 -93 -1 -93 -35 75
c-19 41 -42 82 -51 92 -18 20 -73 24 -91 6z"/>
<path d="M3270 1575 c-8 -9 -8 -15 -2 -15 12 0 26 19 19 26 -2 2 -10 -2 -17
-11z"/>
<path d="M1082 1459 c0 -46 3 -69 5 -51 3 25 9 32 26 32 30 0 67 27 67 49 0
25 -21 41 -64 48 l-36 6 2 -84z m73 31 c0 -21 -5 -26 -32 -28 -31 -3 -33 -1
-33 28 0 29 2 31 33 28 27 -2 32 -7 32 -28z"/>
<path d="M1301 1518 c-4 -13 -18 -49 -29 -80 -12 -32 -18 -58 -13 -58 6 0 13
9 16 20 5 15 15 20 45 20 29 0 39 -4 43 -20 3 -11 10 -20 16 -20 6 0 5 12 -3
33 -7 17 -21 53 -30 80 -19 52 -32 59 -45 25z m34 -40 c16 -39 12 -48 -22 -48
-19 0 -24 4 -19 16 3 9 9 27 12 40 8 32 12 30 29 -8z"/>
<path d="M1488 1529 c-29 -16 -23 -58 10 -69 61 -22 76 -42 42 -60 -17 -9 -26
-8 -45 4 -33 22 -42 20 -20 -4 10 -11 30 -20 45 -20 59 0 68 65 13 84 -39 13
-58 31 -49 45 9 15 49 14 64 -1 6 -6 15 -8 19 -4 10 9 -25 36 -46 36 -9 0 -24
-5 -33 -11z"/>
<path d="M1676 1524 c-30 -30 -17 -53 39 -71 32 -10 45 -40 23 -54 -20 -13
-35 -11 -53 7 -9 9 -19 13 -23 9 -10 -9 27 -35 51 -35 29 0 57 19 57 39 0 22
-15 35 -55 48 -37 12 -42 46 -6 51 13 2 28 -1 34 -7 6 -6 16 -11 22 -11 18 1
-36 40 -55 40 -10 0 -26 -7 -34 -16z"/>
<path d="M1902 1523 c-13 -24 -52 -126 -52 -135 0 -17 18 -7 23 12 4 15 14 20
42 20 28 0 38 -5 42 -20 3 -11 9 -20 14 -20 12 0 12 -2 -17 76 -30 82 -39 93
-52 67z m38 -80 c0 -7 -11 -13 -25 -13 -28 0 -31 13 -14 57 l11 28 14 -30 c7
-16 13 -36 14 -42z"/>
<path d="M2085 1515 c-65 -64 7 -167 86 -125 13 7 19 7 19 0 0 -5 5 -10 10
-10 6 0 10 18 10 40 0 39 -1 40 -35 40 -19 0 -35 -5 -35 -11 0 -5 3 -8 8 -6 4
3 15 2 25 -2 15 -6 16 -9 4 -25 -16 -21 -60 -24 -82 -6 -20 17 -19 74 2 95 16
16 44 17 88 1 17 -7 17 -5 -4 13 -31 28 -66 26 -96 -4z"/>
<path d="M2307 1533 c-4 -3 -7 -39 -7 -80 l0 -73 40 0 c22 0 40 5 40 10 0 6
-13 10 -30 10 -25 0 -30 4 -30 25 0 21 5 25 30 25 17 0 30 5 30 10 0 6 -13 10
-30 10 -25 0 -30 4 -30 25 0 21 5 25 30 25 17 0 30 5 30 10 0 11 -63 14 -73 3z"/>
<path d="M2480 1460 c0 -47 4 -80 10 -80 6 0 10 28 10 63 l0 62 41 -62 c23
-35 46 -63 50 -63 5 0 9 37 9 82 0 91 -17 99 -22 10 l-3 -52 -40 59 c-22 33
-43 61 -47 61 -5 0 -8 -36 -8 -80z"/>
<path d="M2716 1527 c-27 -20 -15 -50 28 -72 47 -25 54 -40 26 -55 -17 -9 -26
-8 -46 5 -25 16 -33 8 -12 -13 24 -24 99 -5 98 26 -1 18 -22 38 -52 48 -45 15
-53 54 -11 54 16 0 34 -5 41 -12 9 -9 12 -9 12 0 0 13 -31 32 -52 32 -8 0 -22
-6 -32 -13z"/>
<path d="M3023 1460 c-17 -44 -27 -80 -21 -80 5 0 12 9 15 20 4 16 14 20 43
20 30 0 40 -5 45 -20 3 -11 10 -20 15 -20 12 0 -44 153 -57 157 -6 2 -24 -32
-40 -77z m67 -21 c0 -11 -47 -12 -53 -1 -2 4 2 23 10 42 l15 35 14 -34 c8 -18
14 -37 14 -42z"/>
<path d="M3220 1460 l0 -80 40 0 c22 0 40 5 40 10 0 6 -13 10 -30 10 -25 0
-30 4 -30 25 0 20 5 25 25 25 14 0 25 5 25 10 0 6 -11 10 -25 10 -20 0 -25 5
-25 25 0 21 5 25 30 25 17 0 30 5 30 10 0 6 -18 10 -40 10 l-40 0 0 -80z"/>
<path d="M3397 1533 c-11 -11 -8 -153 3 -153 6 0 10 14 10 30 0 40 29 40 52 0
9 -17 22 -30 27 -30 6 0 1 15 -10 34 -17 29 -18 34 -4 40 9 3 15 18 15 36 0
24 -6 33 -26 40 -29 12 -58 13 -67 3z m78 -23 c14 -22 -6 -50 -36 -50 -26 0
-29 3 -29 30 0 27 3 30 29 30 17 0 33 -5 36 -10z"/>
<path d="M3590 1460 l0 -80 40 0 c22 0 40 5 40 10 0 6 -13 10 -30 10 -25 0
-30 4 -30 25 0 21 5 25 31 25 17 0 28 4 24 10 -3 6 -17 10 -31 10 -19 0 -24 5
-24 25 0 21 5 25 30 25 17 0 30 5 30 10 0 6 -18 10 -40 10 l-40 0 0 -80z"/>
<path d="M3806 1532 c-5 -9 -56 -142 -56 -148 0 -14 19 0 23 16 7 29 72 28 87
-1 24 -43 20 -8 -6 65 -25 71 -36 87 -48 68z m30 -70 c6 -30 4 -32 -20 -32
-29 0 -31 4 -15 49 13 37 26 31 35 -17z"/>
<path d="M3980 1520 c-26 -26 -15 -50 32 -65 21 -8 34 -19 36 -32 4 -28 -25
-37 -55 -17 -30 19 -46 8 -19 -12 26 -18 70 -18 86 1 20 24 7 49 -38 70 -27
12 -41 25 -40 35 4 18 46 26 61 11 6 -6 16 -11 22 -11 15 1 -35 40 -51 40 -8
0 -23 -9 -34 -20z"/>
</g>
</svg>
