<?xml version="1.0" standalone="no"?>
<!DOCTYPE svg PUBLIC "-//W3C//DTD SVG 20010904//EN"
 "http://www.w3.org/TR/2001/REC-SVG-20010904/DTD/svg10.dtd">
<svg version="1.0" xmlns="http://www.w3.org/2000/svg"
 width="720.000000pt" height="720.000000pt" viewBox="0 0 720.000000 720.000000"
 preserveAspectRatio="xMidYMid meet">
<metadata>
Created by potrace 1.16, written by Peter Selinger 2001-2019
</metadata>
<g transform="translate(0.000000,720.000000) scale(0.100000,-0.100000)"
fill="#ffffff" stroke="none">
<path d="M1586 6184 c-387 -52 -647 -235 -702 -493 -55 -263 66 -590 354 -951
88 -110 328 -358 337 -348 4 3 15 38 25 77 l18 71 -90 108 c-115 138 -103 122
-174 232 -79 122 -134 233 -170 340 -25 77 -28 99 -29 225 l0 140 39 79 c86
177 267 288 556 343 83 16 146 18 498 16 321 -2 409 0 430 11 15 7 58 21 96
31 83 22 80 24 -110 59 -359 67 -835 93 -1078 60z"/>
<path d="M3555 6159 c-98 -9 -294 -44 -304 -55 -3 -4 6 -4 22 0 17 4 27 2 27
-4 0 -7 8 -9 20 -5 11 3 20 4 20 1 0 -9 -36 -43 -51 -49 -8 -3 3 -6 23 -6 21
-1 40 5 45 13 17 29 69 45 151 45 45 0 82 -4 82 -8 0 -4 14 -12 31 -17 17 -5
31 -13 31 -19 1 -5 15 -14 32 -20 40 -13 31 -31 -14 -28 -34 3 -34 3 -12 -13
24 -16 20 -39 -5 -30 -9 4 -11 2 -7 -5 10 -17 -67 -1 -87 17 -11 10 -26 13
-43 8 -16 -4 -26 -2 -26 5 0 6 14 11 30 11 17 0 30 5 30 10 0 6 7 10 15 10 8
0 15 5 15 10 0 6 -7 10 -15 10 -8 0 -15 5 -15 10 0 20 -50 10 -74 -15 -14 -14
-33 -25 -43 -25 -26 0 -205 -69 -224 -86 -20 -18 -13 -54 10 -54 9 0 25 -7 35
-15 11 -8 29 -15 41 -15 29 0 36 -9 25 -30 -6 -12 -5 -23 4 -36 12 -15 16 -16
30 -5 9 7 16 21 16 31 0 10 16 28 36 39 30 18 35 26 30 46 -4 14 -2 25 3 25 5
0 12 11 15 25 5 20 13 25 38 25 48 0 98 -21 98 -42 0 -23 42 -25 60 -3 11 14
15 14 32 -2 11 -10 26 -30 34 -45 8 -16 25 -29 44 -33 16 -4 30 -10 30 -15 0
-4 9 -10 20 -13 11 -3 20 -12 20 -20 0 -19 -97 -57 -145 -57 -28 0 -35 -4 -35
-19 0 -11 -7 -21 -15 -23 -14 -3 -14 -5 0 -25 17 -24 68 -32 80 -13 9 15 25
12 25 -4 0 -7 -15 -19 -32 -26 -18 -6 -48 -18 -66 -26 -38 -16 -59 -10 -41 12
15 18 7 18 -54 -3 -38 -14 -53 -25 -61 -45 -6 -16 -18 -28 -28 -28 -9 0 -20
-4 -23 -10 -3 -5 -15 -10 -26 -10 -10 0 -19 -6 -19 -14 0 -8 -9 -17 -19 -21
-10 -3 -22 -16 -25 -28 -5 -18 -8 -20 -16 -7 -7 11 -10 5 -10 -23 0 -42 -9
-54 -55 -77 -102 -51 -129 -87 -112 -151 13 -52 1 -111 -21 -107 -21 4 -42 45
-42 84 0 35 -22 59 -45 50 -8 -3 -15 -1 -15 4 0 6 -25 10 -55 10 -46 0 -53 -3
-48 -16 5 -14 -1 -15 -50 -9 -47 6 -64 4 -102 -15 -29 -14 -51 -33 -57 -49 -6
-14 -19 -46 -30 -70 -26 -56 -26 -136 1 -171 16 -21 26 -25 62 -22 47 3 79 25
79 53 0 24 29 39 74 39 39 0 48 -18 21 -40 -8 -7 -15 -18 -15 -25 0 -6 -6 -25
-14 -41 -35 -73 -34 -74 37 -74 77 0 96 -14 79 -57 -6 -16 -14 -46 -17 -68 -5
-36 -3 -44 25 -70 29 -27 32 -28 66 -16 28 10 42 10 65 1 16 -7 29 -16 29 -21
0 -20 17 -7 40 31 19 30 36 43 72 55 26 9 50 21 53 26 10 15 35 10 35 -6 0 -8
-4 -15 -10 -15 -5 0 -10 -4 -10 -10 0 -16 18 -12 40 10 21 21 34 18 80 -16 24
-18 92 -25 133 -13 32 9 41 7 65 -11 15 -11 40 -31 56 -43 16 -12 41 -34 55
-48 36 -36 63 -49 106 -49 65 0 138 -45 150 -93 4 -15 13 -31 21 -38 18 -15
18 -28 -3 -51 -15 -17 -15 -18 5 -19 12 -1 25 -2 30 -4 4 -1 21 -5 37 -9 60
-16 114 -39 119 -51 2 -7 32 -16 68 -20 77 -9 105 -19 138 -50 14 -12 36 -26
50 -30 32 -10 40 -22 40 -62 0 -49 -16 -80 -79 -152 -53 -60 -59 -72 -66 -124
-9 -80 -61 -187 -110 -229 -11 -10 -32 -17 -46 -18 -29 0 -87 -24 -132 -54
-19 -13 -29 -30 -33 -57 -4 -21 -15 -49 -26 -61 -11 -13 -31 -36 -45 -53 -14
-16 -22 -23 -19 -15 4 8 -3 2 -16 -15 -61 -79 -75 -88 -129 -83 -28 3 -46 2
-41 -1 6 -3 14 -19 17 -34 l7 -27 -78 29 c-139 51 -268 103 -307 123 l-39 19
8 97 c4 53 7 135 7 181 0 84 0 85 -34 114 -19 16 -60 42 -91 58 -46 23 -62 38
-81 76 -73 143 -120 224 -136 233 -10 5 -22 26 -26 46 -5 30 -2 41 16 60 19
20 20 24 6 24 -32 0 -16 80 25 125 59 65 68 83 68 132 0 40 -17 98 -36 121 -8
11 -44 -12 -44 -29 0 -23 -22 -25 -40 -4 -7 8 -21 15 -31 15 -11 0 -27 9 -37
21 -9 11 -27 25 -39 30 -13 5 -23 16 -23 25 0 23 -39 84 -53 84 -33 0 -116 45
-131 71 -18 31 -35 35 -66 19 -26 -14 -114 28 -170 80 -37 35 -41 42 -34 67
11 39 8 86 -9 125 -22 50 -37 134 -31 168 8 36 -11 41 -20 6 -3 -14 -3 -70 0
-125 3 -56 1 -101 -3 -101 -13 0 -33 59 -26 76 3 9 0 26 -7 39 -10 18 -10 28
-2 38 6 7 11 28 11 47 0 19 1 73 3 120 4 112 32 170 138 283 44 47 80 90 80
95 0 13 47 67 125 146 57 57 58 59 20 36 -224 -132 -448 -349 -606 -585 -170
-254 -285 -596 -305 -915 -7 -94 -6 -99 22 -149 16 -28 35 -51 43 -51 8 0 45
10 83 22 51 16 71 19 79 11 19 -19 2 -43 -43 -63 -39 -17 -40 -19 -18 -24 48
-10 296 -45 365 -51 l70 -6 76 53 c121 83 226 174 272 234 l42 55 28 -31 c15
-17 27 -36 27 -44 0 -24 -29 -97 -51 -128 -20 -27 -20 -31 -6 -39 50 -28 61
-75 27 -109 -26 -26 -54 -25 -91 1 l-29 21 -34 -29 c-36 -29 -44 -43 -25 -43
25 0 196 -89 223 -116 129 -130 9 -227 -241 -196 -54 7 -167 30 -251 53 l-153
40 -117 -17 c-172 -23 -159 -19 -154 -54 3 -23 -2 -38 -19 -56 l-23 -24 18
-53 c34 -95 132 -283 204 -388 325 -476 831 -773 1417 -830 413 -40 868 76
1220 313 50 34 93 66 97 71 4 7 55 6 151 -1 392 -32 730 10 942 115 169 85
279 214 319 374 53 215 -27 505 -222 799 -78 118 -180 251 -250 324 l-47 49
-3 -58 c-3 -54 0 -62 38 -116 91 -130 185 -362 210 -522 18 -109 8 -294 -20
-373 -95 -274 -338 -404 -802 -430 -65 -4 -118 -4 -118 0 0 3 22 30 49 59 74
77 162 190 157 202 -2 5 10 36 26 69 38 75 128 305 128 325 0 9 17 79 37 156
l37 140 0 265 c1 261 1 265 -20 268 -12 2 -27 17 -37 37 -20 42 -30 43 -73 10
-25 -19 -40 -23 -63 -19 -21 4 -39 1 -56 -10 -25 -17 -26 -16 -82 36 -30 29
-64 71 -73 93 -10 22 -36 59 -59 82 -23 23 -41 51 -41 61 0 10 -6 27 -14 37
-10 14 -11 27 -4 53 10 36 -13 132 -39 163 -11 13 -11 31 3 115 11 60 23 103
32 110 12 8 13 20 7 50 -8 38 -8 78 -3 128 3 21 7 24 31 19 21 -4 32 -1 42 14
14 21 81 38 107 28 8 -3 22 -21 32 -40 18 -33 136 -134 136 -116 0 6 -4 13
-10 16 -5 3 -10 11 -10 16 0 6 5 7 12 3 6 -4 -8 21 -32 55 -24 34 -52 67 -62
72 -10 5 -18 16 -18 24 0 15 -42 48 -65 51 -6 1 -40 23 -74 49 -46 35 -65 45
-71 35 -4 -7 -13 -9 -19 -6 -6 4 -11 2 -11 -3 0 -6 5 -11 10 -11 6 0 10 -15
10 -33 0 -18 7 -42 15 -53 22 -29 18 -57 -10 -70 -19 -9 -27 -9 -36 2 -6 8
-21 14 -32 14 -23 0 -38 17 -71 81 -14 25 -31 51 -40 58 -25 21 -10 29 40 23
45 -5 46 -4 35 17 -13 24 -82 77 -112 86 -11 4 -17 11 -13 16 3 5 9 7 13 5 12
-8 11 45 -1 67 -7 12 -11 25 -10 29 1 4 -16 19 -37 34 -22 14 -42 32 -45 40
-3 8 -16 14 -30 14 -13 0 -51 19 -85 43 -34 23 -83 57 -109 75 -26 18 -95 48
-157 68 -256 81 -499 108 -770 83z m1630 -679 c3 -5 1 -10 -4 -10 -6 0 -11 5
-11 10 0 6 2 10 4 10 3 0 8 -4 11 -10z m33 -66 c-10 -9 -41 24 -33 35 5 9 11
7 22 -9 8 -12 13 -23 11 -26z m-1663 -2278 c119 -49 130 -56 133 -81 4 -32
-13 -47 -45 -38 -17 4 -23 1 -23 -11 0 -9 6 -16 14 -16 8 0 18 -5 22 -12 5 -8
2 -9 -9 -5 -12 5 -19 -1 -23 -19 -3 -13 -15 -29 -25 -35 -23 -12 -25 -39 -4
-39 22 0 18 -17 -11 -56 -23 -30 -25 -38 -15 -60 6 -14 25 -30 42 -36 23 -8
27 -13 17 -19 -22 -15 -77 -10 -116 10 -33 17 -82 63 -82 77 0 3 -7 13 -16 21
-10 10 -13 25 -10 39 4 14 2 24 -4 24 -7 0 -8 6 -2 18 5 9 7 23 5 30 -3 6 2
12 11 12 11 0 16 9 15 28 -1 16 -3 20 -6 10 -10 -38 -23 -15 -23 38 0 30 -4
64 -10 74 -7 13 -5 29 5 53 8 19 11 37 8 41 -17 16 34 1 152 -48z"/>
<path d="M3165 6083 c-36 -12 -44 -18 -30 -21 11 -2 29 -11 40 -18 26 -19 44
-18 19 1 -18 13 -18 14 -1 15 10 0 15 5 12 10 -3 6 4 14 17 19 38 16 -3 11
-57 -6z"/>
<path d="M3414 6074 c-13 -11 -15 -17 -6 -20 6 -3 9 -10 6 -16 -5 -7 -1 -7 11
0 10 5 19 19 20 31 2 25 -5 26 -31 5z"/>
<path d="M4747 5877 c18 -16 33 -35 33 -43 0 -8 9 -14 20 -14 31 0 24 15 -22
46 -61 40 -68 43 -31 11z"/>
<path d="M3100 5680 l-45 -18 73 0 c39 -1 72 1 72 4 0 11 -29 34 -42 33 -7 -1
-33 -9 -58 -19z"/>
<path d="M3148 5633 c-21 -5 -61 -68 -56 -85 3 -7 12 0 23 17 10 17 30 40 44
52 25 22 23 25 -11 16z"/>
<path d="M3200 5630 c6 -4 10 -15 8 -25 -4 -26 19 -30 27 -5 5 15 12 19 26 15
13 -4 17 -2 14 7 -3 8 -22 14 -46 14 -23 1 -36 -2 -29 -6z"/>
<path d="M5041 5613 c0 -8 109 -98 109 -90 0 3 -25 26 -55 52 -30 25 -55 43
-54 38z"/>
<path d="M3303 5583 c9 -2 25 -2 35 0 9 3 1 5 -18 5 -19 0 -27 -2 -17 -5z"/>
<path d="M3211 5549 c-40 -16 -17 -20 25 -5 22 8 30 15 19 15 -11 0 -31 -5
-44 -10z"/>
<path d="M3362 4600 c0 -14 2 -19 5 -12 2 6 2 18 0 25 -3 6 -5 1 -5 -13z"/>
<path d="M1714 4384 c4 -27 21 -89 37 -138 16 -49 26 -92 22 -96 -4 -4 -57
-17 -118 -30 -156 -31 -156 -32 21 -30 l122 1 21 -35 c30 -47 83 -92 147 -124
30 -14 54 -29 54 -33 0 -16 -148 -24 -428 -24 -189 0 -291 -4 -289 -10 2 -5
35 -20 74 -33 65 -21 72 -26 86 -63 8 -21 23 -42 31 -45 25 -10 47 14 40 43
-7 25 -6 25 37 20 24 -3 86 -6 137 -6 99 -1 93 2 148 -68 18 -24 34 -33 54
-33 44 0 79 47 50 65 -5 3 -10 12 -10 19 0 9 21 16 68 20 37 4 104 14 148 22
79 14 84 13 165 -10 193 -55 303 -76 408 -76 128 0 191 30 191 91 0 58 -114
144 -246 186 -30 9 -54 20 -54 23 0 4 11 17 25 30 13 12 22 27 18 33 -3 6 -1
7 4 4 6 -4 16 0 23 8 16 20 30 19 60 -5 36 -28 74 -26 88 5 11 23 9 29 -13 50
-13 14 -29 25 -35 25 -17 0 -12 16 21 69 37 60 48 121 25 140 -14 12 -25 4
-83 -59 -61 -65 -180 -162 -290 -234 l-42 -28 -93 12 c-84 10 -289 41 -378 56
l-35 6 70 36 c82 42 65 55 -29 22 -33 -11 -65 -20 -72 -20 -14 0 -104 132
-143 207 -32 63 -45 65 -37 7z"/>
<path d="M1856 3943 c4 -16 9 -31 11 -35 6 -11 83 -10 83 0 0 10 -77 62 -91
62 -5 0 -6 -12 -3 -27z"/>
<path d="M5555 2263 c-104 -14 -217 -70 -282 -142 -137 -149 -150 -403 -26
-527 128 -129 382 -147 553 -39 194 122 263 412 137 577 -74 97 -231 151 -382
131z m122 -210 c52 -24 73 -65 73 -143 0 -88 -33 -158 -91 -197 -35 -23 -53
-28 -103 -28 -71 1 -106 19 -130 70 -34 71 -10 208 45 261 53 51 143 67 206
37z"/>
<path d="M1666 2238 c-2 -7 -34 -166 -71 -353 -37 -187 -69 -350 -72 -362 -5
-23 -4 -23 100 -23 72 0 108 4 114 13 6 6 22 78 37 160 16 81 32 150 37 153 9
5 43 -63 80 -162 28 -74 39 -85 90 -91 50 -6 52 -3 144 117 87 114 118 151
122 147 2 -3 -10 -75 -27 -162 -17 -86 -28 -161 -25 -166 9 -13 202 -12 211 2
6 11 144 703 144 727 0 9 -24 12 -89 12 -49 0 -97 -3 -106 -6 -8 -4 -84 -94
-167 -201 -83 -107 -154 -191 -159 -186 -4 4 -37 81 -73 171 -36 89 -73 176
-81 192 l-16 30 -95 0 c-67 0 -96 -4 -98 -12z"/>
<path d="M2677 2243 c-3 -5 -24 -102 -47 -218 -51 -252 -53 -319 -16 -394 17
-32 31 -49 38 -45 7 4 8 3 4 -4 -4 -7 9 -22 31 -36 65 -43 121 -59 218 -60
195 -2 326 88 384 264 19 60 101 452 101 486 0 12 -19 14 -117 12 l-118 -3
-46 -230 c-53 -266 -70 -308 -128 -326 -58 -17 -108 -5 -132 34 -25 40 -22 75
30 329 21 103 36 190 33 193 -8 8 -230 6 -235 -2z"/>
<path d="M3525 2238 c-14 -42 -144 -722 -139 -729 6 -11 204 -12 221 -1 6 4
25 79 42 166 17 88 33 162 36 164 8 8 22 -9 60 -70 112 -186 150 -244 164
-255 17 -15 187 -18 195 -5 6 10 146 707 146 728 0 11 -21 14 -107 14 -60 0
-113 -4 -118 -8 -6 -4 -24 -74 -39 -157 -31 -162 -35 -175 -45 -175 -4 0 -44
62 -91 138 -46 75 -94 152 -107 170 l-24 32 -95 0 c-67 0 -96 -4 -99 -12z"/>
<path d="M4386 2242 c-6 -10 -146 -707 -146 -728 0 -12 34 -14 208 -14 290 0
383 19 487 98 129 98 190 281 146 435 -29 102 -139 185 -272 206 -76 13 -416
15 -423 3z m402 -206 c38 -19 50 -41 58 -99 15 -111 -53 -214 -155 -236 -61
-13 -171 -15 -171 -3 0 9 56 298 66 341 5 23 7 24 88 19 47 -3 96 -13 114 -22z"/>
<path d="M5540 1334 c-132 -25 -216 -133 -176 -227 20 -48 47 -67 138 -97 66
-21 84 -31 86 -48 3 -17 -3 -22 -32 -28 -44 -8 -121 3 -158 22 -41 21 -46 18
-75 -41 -34 -69 -27 -79 77 -101 161 -34 297 12 342 114 43 96 2 158 -130 198
-87 27 -109 47 -77 70 25 18 107 18 151 -1 20 -8 40 -12 45 -9 15 9 51 95 45
109 -10 26 -168 52 -236 39z"/>
<path d="M1617 1322 c-7 -10 -97 -470 -97 -493 0 -18 6 -20 72 -17 l73 3 20
107 c11 59 23 109 26 113 4 3 21 -29 39 -72 40 -96 45 -103 81 -103 24 0 40
14 100 91 39 49 73 88 75 86 2 -2 -5 -50 -16 -108 -11 -57 -20 -107 -20 -111
0 -12 138 -10 145 2 7 11 95 467 95 493 0 14 -10 17 -64 17 -74 0 -64 8 -201
-173 -44 -58 -83 -102 -87 -99 -3 4 -28 61 -54 127 -26 66 -51 126 -57 133
-10 13 -123 17 -130 4z"/>
<path d="M2545 1318 c-8 -22 -95 -472 -95 -490 0 -16 10 -18 75 -18 63 0 77 3
82 18 12 30 100 487 96 495 -7 13 -153 8 -158 -5z"/>
<path d="M3045 1308 c-13 -56 -95 -473 -95 -485 0 -10 41 -13 194 -13 217 0
201 -6 212 80 l7 50 -112 0 c-61 0 -111 4 -111 9 0 5 16 88 35 186 19 98 32
182 29 187 -3 4 -39 8 -79 8 -69 0 -75 -2 -80 -22z"/>
<path d="M3747 1322 c-7 -10 -97 -474 -97 -495 0 -15 12 -17 80 -17 l79 0 7
38 c3 20 12 62 18 92 l13 55 81 3 82 3 -6 -33 c-3 -18 -12 -59 -19 -90 -7 -32
-10 -60 -7 -63 3 -3 40 -5 83 -5 l78 0 7 38 c3 20 26 134 49 252 23 118 39
219 35 223 -4 4 -40 7 -81 5 l-74 -3 -19 -92 -19 -93 -79 0 c-90 0 -86 -6 -64
107 7 40 11 75 8 78 -8 8 -150 6 -155 -3z"/>
<path d="M4738 1313 c-8 -10 -68 -103 -133 -208 -64 -104 -130 -210 -146 -234
-16 -25 -29 -48 -29 -53 0 -4 36 -8 80 -8 l80 0 28 45 27 45 101 0 102 0 6
-45 7 -45 80 0 c66 0 79 3 79 16 0 9 -25 122 -55 252 -30 130 -55 240 -55 244
0 4 -35 8 -78 8 -63 0 -82 -4 -94 -17z m71 -213 c17 -80 17 -80 -39 -80 -27 0
-50 2 -50 5 0 13 63 125 70 125 5 0 13 -23 19 -50z"/>
<path d="M2768 605 c-3 -68 -1 -85 11 -85 11 0 134 141 128 147 -3 3 -31 -21
-61 -53 l-55 -59 -1 58 c0 78 -18 72 -22 -8z"/>
<path d="M3020 604 c-32 -71 -35 -84 -22 -84 7 0 34 54 70 142 2 4 -1 8 -7 8
-6 0 -24 -30 -41 -66z"/>
<path d="M3213 609 c-32 -33 -61 -67 -66 -75 -12 -22 11 -17 25 6 18 28 84 28
93 0 4 -11 11 -18 16 -15 12 8 12 145 -1 145 -5 0 -35 -27 -67 -61z m57 1 c0
-27 -3 -30 -32 -30 l-32 0 29 30 c16 17 30 30 32 30 2 0 3 -13 3 -30z"/>
<path d="M3492 653 c-62 -30 -80 -114 -28 -127 41 -10 96 23 96 58 0 15 -19 4
-25 -14 -8 -27 -52 -37 -72 -17 -36 36 43 111 93 88 27 -12 46 5 23 20 -21 13
-50 10 -87 -8z"/>
<path d="M3720 604 c-16 -37 -30 -71 -30 -75 0 -5 23 -9 50 -9 28 0 50 5 50
10 0 6 -16 10 -35 10 -35 0 -40 5 -29 34 4 11 19 16 45 16 21 0 39 5 39 10 0
6 -14 10 -31 10 -24 0 -30 3 -25 16 3 9 6 18 6 20 0 2 20 4 45 4 25 0 45 5 45
10 0 6 -22 10 -50 10 l-50 0 -30 -66z"/>
<path d="M3970 604 c-31 -69 -35 -84 -22 -84 4 0 16 20 27 45 10 25 22 48 26
51 4 2 15 -18 24 -46 9 -28 21 -48 26 -44 5 3 25 37 44 75 26 50 31 69 21 69
-8 0 -22 -20 -32 -45 -9 -25 -20 -48 -25 -50 -4 -3 -15 17 -24 45 -9 27 -21
50 -26 50 -6 0 -23 -30 -39 -66z"/>
<path d="M4300 663 c-24 -9 -50 -35 -50 -50 0 -8 14 -19 30 -24 57 -21 23 -58
-40 -44 -18 4 -30 2 -30 -3 0 -18 58 -24 87 -10 41 19 42 53 3 73 -27 14 -29
19 -19 32 9 10 23 13 46 10 37 -6 54 8 20 17 -25 7 -26 6 -47 -1z"/>
</g>
</svg>
